<?xml version="1.0" encoding="UTF-8"?>
<svg version="1.1" xmlns="http://www.w3.org/2000/svg" width="980" height="980">
<path d="M0 0 C1.3343912 0.00222375 2.66878248 0.0044002 4.00317383 0.00653076 C23.66960195 0.05000882 43.01452082 0.46356755 62.5 3.3125 C63.19323364 3.41195923 63.88646729 3.51141846 64.60070801 3.6138916 C140.50837843 14.53843293 213.22613052 40.46513034 276.5 84.3125 C277.35271484 84.90297119 277.35271484 84.90297119 278.22265625 85.50537109 C295.64164197 97.63219914 312.27021971 110.71443545 327.96142578 125.0090332 C329.56062783 126.46012681 331.16651481 127.90391957 332.78173828 129.3371582 C339.13134238 134.97795395 345.19582688 140.8571814 351.1875 146.875 C352.08533203 147.76896484 352.98316406 148.66292969 353.90820312 149.58398438 C358.98205042 154.66526588 363.84277826 159.84852703 368.5 165.3125 C369.44920393 166.39568668 370.39967136 167.4777678 371.3515625 168.55859375 C379.15207426 177.50128853 386.42410877 186.78863101 393.5 196.3125 C394.04833496 197.05048828 394.59666992 197.78847656 395.16162109 198.54882812 C424.31589676 237.9691762 447.03719604 281.1535966 463.5 327.3125 C463.83596191 328.23724121 464.17192383 329.16198242 464.51806641 330.11474609 C480.89324208 375.43989105 490.51623929 425.42801728 490.703125 473.64453125 C490.71018463 474.86738831 490.71724426 476.09024536 490.72451782 477.35015869 C490.74202815 481.27514631 490.74850271 485.19997458 490.75 489.125 C490.75044186 490.13012697 490.75044186 490.13012697 490.75089264 491.15555954 C490.75766688 586.60190946 463.70642932 681.52372497 406.5 766.3125 C406.10635254 766.88097656 405.71270508 767.44945312 405.30712891 768.03515625 C393.18030086 785.45414197 380.09806455 802.08271971 365.8034668 817.77392578 C364.35237319 819.37312783 362.90858043 820.97901481 361.4753418 822.59423828 C355.83454605 828.94384238 349.9553186 835.00832688 343.9375 841 C343.04353516 841.89783203 342.14957031 842.79566406 341.22851562 843.72070312 C336.14723412 848.79455042 330.96397297 853.65527826 325.5 858.3125 C324.41681332 859.26170393 323.3347322 860.21217136 322.25390625 861.1640625 C313.31121147 868.96457426 304.02386899 876.23660877 294.5 883.3125 C293.76201172 883.86083496 293.02402344 884.40916992 292.26367188 884.97412109 C252.8433238 914.12839676 209.6589034 936.84969604 163.5 953.3125 C162.11288818 953.81644287 162.11288818 953.81644287 160.69775391 954.33056641 C115.35941261 970.71050968 65.32374008 980.32935804 17.1328125 980.515625 C15.90731186 980.52268463 14.68181122 980.52974426 13.41917419 980.53701782 C9.48776459 980.55452441 5.55644047 980.56171001 1.625 980.5625 C0.95376476 980.56279457 0.28252953 980.56308914 -0.40904617 980.56339264 C-20.93891189 980.5648473 -41.14545537 980.23794011 -61.5 977.3125 C-62.95047875 977.11151247 -64.40100161 976.91084311 -65.8515625 976.71044922 C-153.54599182 964.43367393 -238.07372279 929.51074478 -312.5 868.3125 C-313.0976416 867.81395508 -313.6952832 867.31541016 -314.31103516 866.80175781 C-327.28524499 855.94877942 -339.51772883 844.37105803 -351.5 832.4375 C-352.28914795 831.6530249 -353.0782959 830.8685498 -353.89135742 830.06030273 C-358.63298981 825.30556216 -363.13798062 820.4161692 -367.5 815.3125 C-368.47329843 814.19473755 -369.44722917 813.07752527 -370.421875 811.9609375 C-379.85595894 801.07102718 -388.73055609 789.85309709 -397.1875 778.1875 C-397.95308228 777.13224121 -397.95308228 777.13224121 -398.73413086 776.05566406 C-436.22730101 723.87562161 -462.51511161 664.6883064 -477.5 602.3125 C-477.84756348 600.90000977 -477.84756348 600.90000977 -478.20214844 599.45898438 C-481.2343698 587.03622727 -483.34947295 574.52007593 -485.1875 561.875 C-485.34173431 560.83049683 -485.34173431 560.83049683 -485.49908447 559.76489258 C-488.85293184 536.81701668 -489.88074238 513.9902747 -489.8125 490.8125 C-489.81027619 489.47777311 -489.80809975 488.14304614 -489.80596924 486.80831909 C-489.76247256 467.12764341 -489.28057828 447.81717738 -486.5 428.3125 C-486.30924338 426.89968665 -486.11933631 425.4867584 -485.93017578 424.07373047 C-474.16316015 337.30325014 -439.21281722 256.59680975 -364.8034668 162.85107422 C-363.35237319 161.25187217 -361.90858043 159.64598519 -360.4753418 158.03076172 C-354.83454605 151.68115762 -348.9553186 145.61667312 -342.9375 139.625 C-342.04353516 138.72716797 -341.14957031 137.82933594 -340.22851562 136.90429688 C-335.14731992 131.83053526 -329.96490402 126.96855395 -324.5 122.3125 C-323.42860683 121.3749314 -322.35824504 120.43618252 -321.2890625 119.49609375 C-289.58738139 91.88045139 -253.59863911 67.23149344 -215.5 49.3125 C-214.64277344 48.90322266 -213.78554688 48.49394531 -212.90234375 48.07226562 C-180.37113748 32.5758287 -146.52722368 20.7272856 -111.5 12.3125 C-110.08750977 11.96493652 -110.08750977 11.96493652 -108.64648438 11.61035156 C-96.22372727 8.5781302 -83.70757593 6.46302705 -71.0625 4.625 C-70.01799683 4.47076569 -70.01799683 4.47076569 -68.95239258 4.31341553 C-46.00451715 0.95956822 -23.17777484 -0.06824721 0 0 Z " fill="#FEFEFE" transform="translate(489.5,-0.3125)"/>
<path d="M0 0 C48.283125 -0.28875 96.56625 -0.5775 146.3125 -0.875 C161.56122314 -1.00245605 176.80994629 -1.12991211 192.52075195 -1.26123047 C211.13317871 -1.32446289 211.13317871 -1.32446289 219.84489441 -1.33621216 C225.93351469 -1.34926317 232.02033448 -1.40058726 238.10844421 -1.47805786 C245.13361428 -1.56731995 252.15705931 -1.60767237 259.18280042 -1.58822931 C262.77603002 -1.57980958 266.36540789 -1.5929308 269.95792639 -1.66901183 C292.3299349 -2.12012582 292.3299349 -2.12012582 298.01003075 3.00387192 C300.50079972 5.83456403 302.34305027 8.84427219 304.03192365 12.20427871 C305.62454927 15.15849998 307.7104158 17.63994775 309.8125 20.25 C310.63171293 21.31755296 311.45077124 22.38522463 312.26953125 23.453125 C315.4942756 27.64999063 318.7479532 31.82427945 322 36 C327.69382333 43.31276786 333.35773145 50.64738974 339 58 C340.29825581 59.6902568 341.59687213 61.38023458 342.89599609 63.06982422 C343.74461309 64.17382841 344.59261397 65.27830653 345.43994141 66.38330078 C348.51800289 70.39254053 351.65034522 74.3560739 354.8203125 78.29296875 C356 80 356 80 356 82 C360.12848038 78.08362504 363.52917147 73.86113227 366.9375 69.3125 C368.08782859 67.79242886 369.23889559 66.27291629 370.390625 64.75390625 C370.98294922 63.97160645 371.57527344 63.18930664 372.18554688 62.38330078 C375.15579498 58.48185272 378.17137509 54.61602244 381.1875 50.75 C386.02927787 44.53708158 390.85269921 38.31101894 395.6484375 32.0625 C397.23393843 29.99766158 398.82255092 27.93520916 400.4140625 25.875 C400.81970216 25.34697816 401.22534182 24.81895632 401.64327359 24.27493382 C402.84705117 22.7235201 404.0778647 21.19320442 405.30918503 19.66355896 C407.22986782 17.18103999 408.70989907 14.71718463 410.10942459 11.91078186 C413.16071064 6.2596004 416.42831042 1.17365204 422.77172756 -0.91078568 C430.69800366 -2.28529407 438.72862384 -2.04746319 446.74250168 -1.85716367 C450.46722451 -1.78684429 454.19162258 -1.81070585 457.91682816 -1.82225037 C465.13482268 -1.83072754 472.34960993 -1.75715855 479.56678207 -1.6542291 C487.92194704 -1.53865631 496.27520813 -1.52629488 504.63134766 -1.51367188 C526.67140394 -1.42979396 548.7107507 -1.20641389 570.75 -1 C644.62875 -0.505 644.62875 -0.505 720 0 C720 104.61 720 209.22 720 317 C700.47419586 317 700.47419586 317 693.6061554 316.85487366 C692.39663429 316.83143069 692.39663429 316.83143069 691.16267842 316.80751413 C688.53200251 316.756142 685.90138035 316.70242698 683.27075195 316.64868164 C681.35229278 316.61074661 679.43383056 316.57296545 677.5153656 316.5353241 C673.40748999 316.45442515 669.29963651 316.37250578 665.19179726 316.28978157 C658.61408271 316.15738074 652.03631679 316.02766165 645.45854187 315.89830017 C629.07544018 315.57569092 612.69241033 315.24948413 596.30938721 314.9229126 C593.99279787 314.87674871 591.67620852 314.83058579 589.35961914 314.78442383 C587.64478968 314.75023171 587.64478968 314.75023171 585.8953172 314.71534884 C580.15738062 314.60105643 574.41943188 314.48744151 568.68145561 314.37515831 C566.40334939 314.33054828 564.12524334 314.2859297 561.84713745 314.24130249 C560.72497326 314.21933504 559.60280906 314.1973676 558.4466399 314.17473447 C551.70345494 314.04197974 544.96043392 313.9029097 538.21747816 313.75900161 C518.02623076 313.32953038 497.84488937 312.93289023 477.64834034 312.99353564 C475.10440307 312.99940933 472.56055691 312.99900427 470.01661587 312.99589825 C469.20587142 312.99494618 468.39512697 312.99399412 467.55981451 312.9930132 C465.96627527 312.99092619 464.3727364 312.98853239 462.77919811 312.9858138 C458.30549656 312.98239684 453.83519049 313.02318305 449.36219549 313.10066366 C447.32057789 313.12868672 445.28037345 313.13437246 443.23858833 313.12996864 C440.81841663 313.12538635 438.39775304 313.15623 435.97878838 313.23279381 C431.16835704 313.17528875 428.18631481 312.96136176 424.37401772 309.87196541 C422.06717385 307.3431516 420.01821107 304.76252171 418 302 C416.67184995 300.34998104 415.33924024 298.70353038 414 297.0625 C413.34902344 296.2375 412.69804688 295.4125 412.02734375 294.5625 C408.41193097 289.99272971 404.69596799 285.50465842 401 281 C399.49971683 279.16689838 397.99971592 277.33356573 396.5 275.5 C395.7575 274.5925 395.015 273.685 394.25 272.75 C389 266.33333333 383.75 259.91666667 378.5 253.5 C377.76265625 252.59894531 377.0253125 251.69789063 376.265625 250.76953125 C374.71297828 248.87155449 373.16092466 246.97309243 371.609375 245.07421875 C370.83078125 244.12160156 370.0521875 243.16898438 369.25 242.1875 C368.51394531 241.28515625 367.77789062 240.3828125 367.01953125 239.453125 C365.34972733 237.42481386 363.65225175 235.42757808 361.9375 233.4375 C360 231 360 231 360 229 C356.28344894 232.57668086 353.02328803 236.34887411 349.875 240.4375 C348.90373598 241.68626803 347.9323792 242.93496393 346.9609375 244.18359375 C346.22375488 245.13468018 346.22375488 245.13468018 345.47167969 246.10498047 C343.16098077 249.08036948 340.83008702 252.03978729 338.5 255 C335.76883941 258.47298716 333.03972414 261.94748984 330.3203125 265.4296875 C324.8856907 272.38067244 319.3658478 279.25384043 313.78369141 286.08691406 C309.49035714 291.35816733 305.32684105 296.71632258 301.21875 302.1328125 C300.12046875 303.55207031 300.12046875 303.55207031 299 305 C298.05776439 306.55138137 298.05776439 306.55138137 297.09649372 308.13410378 C295.3138701 310.23676174 294.32618973 310.92494047 291.61284006 311.54930949 C288.47326404 311.75973369 285.38378346 311.77022905 282.23735046 311.7215271 C281.03542053 311.72666321 279.8334906 311.73179932 278.59513855 311.73709106 C275.25497242 311.7452973 271.91691236 311.72647719 268.57700001 311.69643638 C264.92180794 311.67024393 261.26666943 311.67900349 257.61140919 311.68334389 C250.51523712 311.68653457 243.41952041 311.65882456 236.32346537 311.62033591 C228.11586709 311.57715025 219.90854265 311.57236831 211.70080566 311.56762695 C190.02963156 311.5361197 168.35855896 311.45235304 146.6875 311.375 C98.280625 311.25125 49.87375 311.1275 0 311 C0 208.37 0 105.74 0 0 Z " fill="#1E1D1D" transform="translate(128,332)"/>
<path d="M0 0 C44.3025 -0.309375 88.605 -0.61875 134.25 -0.9375 C148.23665039 -1.07406006 162.22330078 -1.21062012 176.63378906 -1.35131836 C193.71826172 -1.41906738 193.71826172 -1.41906738 201.71722412 -1.43165588 C207.30266286 -1.44562815 212.88584338 -1.50056703 218.47064209 -1.58363342 C224.91747849 -1.67937906 231.36215484 -1.72248257 237.80970691 -1.70167426 C241.10671212 -1.69266417 244.3979422 -1.71499725 247.69427919 -1.78822696 C268.2322838 -2.22321258 268.2322838 -2.22321258 274.12126923 3.24950981 C276.82438118 6.3158683 278.96493046 9.58409269 280.94375181 13.15292728 C282.51078177 15.89320965 284.43532056 18.32819468 286.375 20.8125 C287.08914063 21.77414062 287.80328125 22.73578125 288.5390625 23.7265625 C291.55111127 27.75861773 294.65385463 31.71990627 297.75 35.6875 C302.36446838 41.60168756 306.95210831 47.53445715 311.5 53.5 C318.27365032 62.37995172 325.12388224 71.19922726 332 80 C332.73863281 80.94552734 332.73863281 80.94552734 333.4921875 81.91015625 C339.12062962 89.10896482 344.80167441 96.2637419 350.51782227 103.39306641 C356.63056236 111.02336368 362.65792299 118.72054981 368.67578125 126.42578125 C373.57538635 132.69073349 378.53134917 138.90253706 383.5625 145.0625 C388.28835664 150.84867154 392.87667911 156.71486481 397.40625 162.65625 C400.36211201 166.49887061 403.43112564 170.24747212 406.5 174 C410.42612763 178.80176754 414.30182896 183.62990957 418.0625 188.5625 C422.11773547 193.87761445 426.26453364 199.11019355 430.45141602 204.32202148 C434.45082851 209.30338362 438.40856967 214.31610173 442.34741211 219.34545898 C443.56352796 220.8980808 444.78170942 222.44908403 446 224 C446.55733952 224.87417415 447.11467903 225.74834829 447.68890762 226.64901257 C450.2684014 229.27303466 451.63236894 229.59535672 455.25365901 229.67157966 C455.94626929 229.6609064 456.63887956 229.65023314 457.35247803 229.63923645 C458.0950187 229.64759213 458.83755938 229.6559478 459.60260129 229.66455668 C462.09198941 229.68651304 464.57990599 229.67287263 467.06933594 229.65942383 C468.85316591 229.6678752 470.63698666 229.67851845 472.42079163 229.69119263 C477.26556976 229.71938936 482.10990593 229.71685846 486.95474148 229.70889878 C492.0170339 229.70577827 497.07918442 229.7307947 502.14141846 229.75285339 C511.72841287 229.79033975 521.31526541 229.8024441 530.90232587 229.8054778 C541.81642701 229.81016365 552.7303856 229.84307176 563.64442396 229.87837565 C586.09626536 229.95036755 608.54805251 229.9868361 631 230 C630.96272991 212.49218114 630.90271806 194.98460472 630.81609726 177.476964 C630.77639438 169.34670013 630.74395767 161.21653182 630.72900391 153.08618164 C630.71594177 145.99455522 630.68886177 138.90313985 630.64538693 131.81163234 C630.62287389 128.06140506 630.60708315 124.31143708 630.60811615 120.56113625 C630.60886885 117.0208499 630.59067788 113.48113453 630.55883217 109.94099617 C630.54644191 108.04343756 630.55334945 106.14578252 630.56114197 104.24819946 C630.37458226 88.66408285 625.14859521 75.66740151 614.5078125 64.359375 C602.80961741 53.35359644 589.13519367 50.39285844 573.48901367 50.45410156 C572.06567167 50.4452788 570.64233954 50.43472421 569.2190218 50.42260361 C565.44891315 50.39518057 561.67913705 50.39108393 557.90894318 50.39224243 C554.35540381 50.38967765 550.80213001 50.36551182 547.24865723 50.34326172 C536.8950246 50.29075894 526.54124149 50.27241193 516.1875 50.25 C493.025625 50.1675 469.86375 50.085 446 50 C446 98.84 446 147.68 446 198 C440.36734694 192.36734694 440.36734694 192.36734694 437.80078125 189.25 C437.23673584 188.56607178 436.67269043 187.88214355 436.09155273 187.17749023 C435.21092163 186.09963257 435.21092163 186.09963257 434.3125 185 C433.69383057 184.245979 433.07516113 183.49195801 432.43774414 182.71508789 C428.03455711 177.32542256 423.77078679 171.84876883 419.55859375 166.30859375 C416.61926034 162.47381883 413.5589675 158.73952574 410.5 155 C406.57381116 150.19828472 402.69816923 145.37008807 398.9375 140.4375 C394.87657221 135.11492474 390.72364171 129.87524599 386.53100586 124.65600586 C383.16057646 120.45792185 379.81902921 116.23881795 376.5 112 C373.12757783 107.69381742 369.73452886 103.40542561 366.31323242 99.13793945 C365.28309589 97.85264182 364.25457202 96.56604977 363.2277832 95.27807617 C361.06093789 92.56063608 358.88340186 89.86070305 356.65234375 87.1953125 C356.00394531 86.40898437 355.35554688 85.62265625 354.6875 84.8125 C354.13449219 84.15894531 353.58148438 83.50539063 353.01171875 82.83203125 C352 81 352 81 352.0546875 79.1328125 C353.40147157 76.09420051 355.37364695 73.63690546 357.4375 71.0625 C358.35825352 69.89076689 359.2788216 68.71888805 360.19921875 67.546875 C360.6689209 66.95326172 361.13862305 66.35964844 361.62255859 65.74804688 C363.69117744 63.12285884 365.71888486 60.46675992 367.75 57.8125 C371.74797942 52.60714675 375.77851905 47.42747596 379.8125 42.25 C384.43885267 36.30855794 389.04804914 30.35459865 393.625 24.375 C394.09010986 23.76817383 394.55521973 23.16134766 395.03442383 22.53613281 C395.74828247 21.60172363 395.74828247 21.60172363 396.4765625 20.6484375 C396.99379757 20.01116226 397.51103264 19.37388702 398.0439415 18.71730042 C399.62850078 16.51607607 400.80051111 14.50198028 402.03047562 12.10990906 C405.11646135 6.5879081 408.40753326 1.26516794 414.61163616 -0.9197464 C422.56282454 -2.39937301 430.65001403 -2.00290316 438.69824219 -1.81640625 C441.46316781 -1.80257497 444.22788516 -1.81293855 446.99281693 -1.82225037 C453.63023794 -1.8307229 460.26416727 -1.7572036 466.90069325 -1.6542291 C474.58468489 -1.53859349 482.26660791 -1.52629186 489.95166016 -1.51367188 C510.21832326 -1.42981529 530.4842148 -1.20643488 550.75 -1 C596.0425 -0.67 641.335 -0.34 688 0 C688 94.05 688 188.1 688 285 C664.9328263 285 664.9328263 285 656.17796326 284.90438843 C655.14774789 284.89384859 654.11753253 284.88330875 653.05609852 284.87244952 C649.68899432 284.83738345 646.32191449 284.80045195 642.95483398 284.76318359 C641.16485394 284.74383727 641.16485394 284.74383727 639.33871269 284.72410011 C616.67218664 284.47755681 594.00688399 284.15807134 571.34180286 283.80400326 C567.65585465 283.74644678 563.96989793 283.68945337 560.28393555 283.6328125 C559.5504773 283.62153177 558.81701905 283.61025104 558.0613348 283.59862848 C546.14605745 283.41682412 534.23071777 283.28486964 522.31461858 283.17111211 C510.03537078 283.05280725 497.75766422 282.8819777 485.47980553 282.6624037 C477.92835817 282.52897448 470.37867831 282.43581795 462.82615108 282.39535333 C457.04208958 282.35995112 451.26116962 282.25122547 445.47867775 282.11551476 C443.11476259 282.07138106 440.75026997 282.05073785 438.38594818 282.05575371 C419.60226791 282.07487678 419.60226791 282.07487678 414.20691109 276.89177322 C411.30580858 273.51816072 409.17178295 269.87249587 407 266 C405.89975023 264.60881075 404.77187293 263.23725855 403.58203125 261.921875 C403.11708252 261.38667236 402.65213379 260.85146973 402.1730957 260.30004883 C401.72409912 259.78853271 401.27510254 259.2770166 400.8125 258.75 C396.74113087 254.05398246 392.77794937 249.29773764 388.921875 244.421875 C385.33622706 239.90337556 381.65847685 235.45955713 378 231 C376.60403235 229.29177642 375.20820102 227.58344143 373.8125 225.875 C369.88554489 221.07462405 365.94393032 216.28643525 362 211.5 C356.65314796 205.01094999 351.31943682 198.51155167 346 192 C344.50014304 190.16654964 343.0001406 188.33321829 341.5 186.5 C314.5 153.5 314.5 153.5 312.2421875 150.73828125 C310.77107387 148.94167732 309.29720472 147.14732543 307.8203125 145.35546875 C303.25821919 139.81114539 298.78973144 134.20344228 294.36987305 128.54589844 C290.78086024 123.96396883 287.12040249 119.44415994 283.4375 114.9375 C279.53305934 110.15620251 275.68124458 105.34576295 271.9375 100.4375 C268.37116242 95.76317404 264.74393535 91.14666279 261.0625 86.5625 C257.16280554 81.70655862 253.28124634 76.83787912 249.4375 71.9375 C249.05032155 71.45866887 248.66314311 70.97983773 248.26423198 70.48649657 C245.88992494 67.51991678 243.67878036 64.55948776 241.69077587 61.31911278 C236.85246763 53.72491904 236.85246763 53.72491904 229.11493874 49.71974564 C224.460118 49.06703195 219.8226577 49.19946352 215.13598633 49.31884766 C213.32239041 49.31310465 211.50880534 49.30120564 209.69528484 49.28369713 C204.86474885 49.25387869 200.03862447 49.30761245 195.20867157 49.37944031 C190.66649128 49.43410833 186.12588018 49.41239905 181.58337402 49.3972168 C168.32619859 49.39693387 155.06924606 49.51830173 141.8125 49.625 C97.3553125 49.810625 97.3553125 49.810625 52 50 C52 109.4 52 168.8 52 230 C84.81458062 230.20080848 84.81458062 230.20080848 117.62890625 230.27929688 C131.01233081 230.28414178 144.39477195 230.30243601 157.77783203 230.40795898 C167.52515322 230.48475301 177.27137128 230.51575291 187.01898539 230.49218339 C192.17897608 230.48129492 197.33663752 230.49304995 202.49625778 230.55968666 C207.35813424 230.62175347 212.21623262 230.62235105 217.0782547 230.5768013 C218.85761132 230.57078257 220.63720731 230.58678813 222.41611862 230.62704659 C231.52652565 231.06837239 231.52652565 231.06837239 239.69073153 227.71913886 C243.14012741 224.22043211 245.55749231 220.23657016 248 216 C249.01930683 214.54770544 250.05092912 213.10370934 251.109375 211.6796875 C251.99193872 210.41309633 252.87215316 209.1448649 253.75 207.875 C258.11948849 201.61983064 262.58478849 195.44482956 267.125 189.3125 C271.22257796 183.77465938 275.30793142 178.23060303 279.3125 172.625 C279.90345459 171.79875122 279.90345459 171.79875122 280.50634766 170.95581055 C282.55469149 168.07743845 284.56540147 165.17749372 286.54296875 162.25 C286.95571045 161.6420459 287.36845215 161.0340918 287.79370117 160.40771484 C288.93126701 158.72657625 290.05968455 157.03925777 291.1875 155.3515625 C291.785625 154.57554687 292.38375 153.79953125 293 153 C293.66 153 294.32 153 295 153 C296.72335636 155.02729928 298.3381169 157.06533223 299.9375 159.1875 C303.74474221 164.14241612 307.62340344 169.00319806 311.6875 173.75 C315.58849556 178.31820789 319.42679061 182.92370586 323.1328125 187.65234375 C324.42543127 189.277582 325.75668176 190.87255738 327.1171875 192.44140625 C327.77976562 193.22386719 328.44234375 194.00632812 329.125 194.8125 C330.02605469 195.84310547 330.02605469 195.84310547 330.9453125 196.89453125 C332 199 332 199 331.45703125 201.421875 C329.76384639 204.41785893 327.81780033 206.83578554 325.5625 209.4375 C324.6545212 210.49982689 323.74833796 211.56369052 322.84375 212.62890625 C322.37453125 213.18078613 321.9053125 213.73266602 321.421875 214.30126953 C319.07160727 217.1091615 316.81567956 219.98900913 314.5625 222.875 C314.10560791 223.45950928 313.64871582 224.04401855 313.17797852 224.64624023 C312.24852603 225.83636301 311.31957176 227.02687504 310.39111328 228.21777344 C308.1015475 231.15105357 305.80029929 234.07513509 303.5 237 C300.75941048 240.48647692 298.01990362 243.97378166 295.28515625 247.46484375 C290.42570535 253.66513346 285.54310328 259.84609296 280.625 266 C280.13717041 266.61093506 279.64934082 267.22187012 279.14672852 267.85131836 C278.67807373 268.4366333 278.20941895 269.02194824 277.7265625 269.625 C277.32002441 270.13289063 276.91348633 270.64078125 276.49462891 271.1640625 C276.00140137 271.76992188 275.50817383 272.37578125 275 273 C274.36798581 274.01298471 273.73597162 275.02596943 273.08480549 276.06965065 C271.3585429 278.11420354 270.38719528 278.9040332 267.76745927 279.55333781 C264.87927543 279.75883506 262.04375555 279.77038098 259.14848328 279.7215271 C258.04432068 279.72666321 256.94015808 279.73179932 255.80253601 279.73709106 C252.08350903 279.74703847 248.36609608 279.71385993 244.6472168 279.68115234 C241.94327489 279.67597844 239.23936319 279.67984803 236.53542042 279.68334389 C230.01992378 279.68653378 223.50492333 279.65883166 216.98955419 279.62033591 C209.45315151 279.57714021 201.91704696 279.57236778 194.38049316 279.56762695 C174.48275012 279.5361232 154.58511762 279.45235649 134.6875 279.375 C68.0171875 279.189375 68.0171875 279.189375 0 279 C0 186.93 0 94.86 0 0 Z " fill="#FEFEFE" transform="translate(144,348)"/>
<path d="M0 0 C19.408125 -0.268125 38.81625 -0.53625 58.8125 -0.8125 C67.98123901 -0.99002808 67.98123901 -0.99002808 77.33520508 -1.17114258 C84.8392334 -1.2298584 84.8392334 -1.2298584 88.35990906 -1.24076843 C90.80223944 -1.26064278 93.24444754 -1.30618639 95.68595886 -1.3724823 C117.39350551 -1.93210204 117.39350551 -1.93210204 122.99952698 2.82626343 C125.91931736 5.92588839 127.94256677 9.28543486 130 13 C131.11519553 14.48401166 132.25039653 15.95381519 133.42578125 17.390625 C134.39072644 18.67505516 135.35298714 19.96150664 136.3125 21.25 C140.80210965 27.20170661 145.42214195 33.0168101 150.1875 38.75 C155.12429497 44.69172504 159.94373171 50.69035074 164.59375 56.859375 C166.32807748 59.12301022 168.08407747 61.32565247 169.90625 63.515625 C170.6192627 64.39009277 170.6192627 64.39009277 171.34667969 65.28222656 C172.26003712 66.40024725 173.18722504 67.50715629 174.12988281 68.60058594 C175.359375 70.125 175.359375 70.125 177 73 C176.22816031 77.91540014 172.10234469 82.25023054 169.1875 86.1875 C168.00243142 87.80716528 166.81754044 89.42696053 165.6328125 91.046875 C164.72450684 92.2834082 164.72450684 92.2834082 163.79785156 93.54492188 C161.56503332 96.59397405 159.35709493 99.66043386 157.15087891 102.72875977 C151.50853667 110.57478962 145.79386693 118.36529214 140.04833984 126.13598633 C135.95198913 131.68440598 131.91381731 137.2709715 127.9309082 142.90136719 C125.09465786 146.90534214 125.09465786 146.90534214 124 148 C122.393108 148.09600136 120.78198231 148.12187889 119.17222595 148.12025452 C118.12967872 148.12163201 117.08713148 148.12300951 116.01299191 148.12442875 C114.27587366 148.11903159 114.27587366 148.11903159 112.50366211 148.11352539 C110.65981477 148.11370619 110.65981477 148.11370619 108.77871799 148.11389065 C105.44304334 148.1132656 102.10743022 148.10830655 98.77176666 148.10128021 C95.64573767 148.09560007 92.5197103 148.0953179 89.39367676 148.09460449 C80.24161309 148.08934983 71.0895561 148.07538877 61.9375 148.0625 C41.498125 148.041875 21.05875 148.02125 0 148 C0 99.16 0 50.32 0 0 Z " fill="#FDFDFD" transform="translate(250,414)"/>
<path d="M0 0 C13.98375 -0.0825 27.9675 -0.165 42.375 -0.25 C46.77376465 -0.28641602 51.1725293 -0.32283203 55.70458984 -0.36035156 C61.1184082 -0.37841797 61.1184082 -0.37841797 63.66104126 -0.3817749 C65.41897646 -0.38787629 67.17689599 -0.40185896 68.9347229 -0.42230225 C83.24426593 -0.58025369 93.03958651 0.31422719 103.8046875 10.640625 C114.17770391 21.78884905 114.4354473 34.12583581 114.328125 48.5625 C114.3250636 50.36327964 114.32319038 52.16406166 114.32244873 53.96484375 C114.3178664 57.72030842 114.30351247 61.47555618 114.28125 65.23095703 C114.25280573 70.05430659 114.24201995 74.87748698 114.2375679 79.70091248 C114.23342346 83.41023458 114.22361684 87.11952229 114.21169281 90.8288269 C114.20598382 92.60871098 114.2012272 94.38859837 114.19742584 96.16848755 C114.19058958 98.64363516 114.17697425 101.11864575 114.16113281 103.59375 C114.16001495 104.33342514 114.15889709 105.07310028 114.15774536 105.83518982 C114.1146998 110.8853002 114.1146998 110.8853002 113 112 C111.5325104 112.09565123 110.06043116 112.12188309 108.58982849 112.12025452 C107.63765442 112.12162918 106.68548035 112.12300385 105.70445251 112.12442017 C104.65141434 112.12082489 103.59837616 112.11722961 102.51342773 112.11352539 C101.41112823 112.11367142 100.30882874 112.11381744 99.17312622 112.1139679 C95.50992908 112.11326821 91.84678206 112.10547324 88.18359375 112.09765625 C85.65153532 112.09579227 83.11947652 112.09436827 80.5874176 112.09336853 C74.59151751 112.08993346 68.59563911 112.08204269 62.59974772 112.07201904 C53.90988975 112.05780588 45.22002566 112.0525474 36.530159 112.04621124 C24.3534243 112.03649852 12.176737 112.01734303 0 112 C0 75.04 0 38.08 0 0 Z " fill="#FEFEFE" transform="translate(645,414)"/>
</svg>
